<svg xmlns="http://www.w3.org/2000/svg" xmlns:xlink="http://www.w3.org/1999/xlink" contentStyleType="text/css" height="922px" preserveAspectRatio="none" style="width:465px;height:922px;background:#0B58A8;" version="1.1" viewBox="0 0 465 922" width="465px" zoomAndPan="magnify"><defs/><g><rect fill="#0B58A8" height="922" style="stroke:none;stroke-width:1;" width="465" x="0" y="0"/><rect fill="#0B58A8" height="146.5301" style="stroke:#FFFFFF;stroke-width:1;" width="330.155" x="25" y="102.0679"/><rect fill="#0B58A8" height="83.118" style="stroke:#FFFFFF;stroke-width:1;" width="330.155" x="25" y="262.598"/><rect fill="#0B58A8" height="461.8842" style="stroke:#FFFFFF;stroke-width:1;" width="444.2872" x="15" y="359.716"/><rect fill="#0B58A8" height="127.8241" style="stroke:#FFFFFF;stroke-width:1;" width="424.2872" x="25" y="449.8341"/><rect fill="#0B58A8" height="127.8241" style="stroke:#FFFFFF;stroke-width:1;" width="424.2872" x="25" y="686.7762"/><line style="stroke:#FFFFFF;stroke-width:1;" x1="59" x2="59" y1="85.0679" y2="838.6003"/><line style="stroke:#FFFFFF;stroke-width:1;" x1="187.6263" x2="187.6263" y1="85.0679" y2="838.6003"/><line style="stroke:#FFFFFF;stroke-width:1;" x1="320.8892" x2="320.8892" y1="85.0679" y2="838.6003"/><text fill="#FFFFFF" font-family="Verdana" font-size="14" lengthAdjust="spacing" textLength="42.2658" x="35" y="80.9659">User 1</text><ellipse cx="59.1329" cy="14" fill="#0B58A8" rx="8" ry="8" style="stroke:#FFFFFF;stroke-width:1;"/><path d="M59.1329,22 L59.1329,49 M46.1329,30 L72.1329,30 M59.1329,49 L46.1329,64 M59.1329,49 L72.1329,64 " fill="none" style="stroke:#FFFFFF;stroke-width:1;"/><text fill="#FFFFFF" font-family="Verdana" font-size="14" lengthAdjust="spacing" textLength="42.2658" x="35" y="852.5662">User 1</text><ellipse cx="59.1329" cy="865.6682" fill="#0B58A8" rx="8" ry="8" style="stroke:#FFFFFF;stroke-width:1;"/><path d="M59.1329,873.6682 L59.1329,900.6682 M46.1329,881.6682 L72.1329,881.6682 M59.1329,900.6682 L46.1329,915.6682 M59.1329,900.6682 L72.1329,915.6682 " fill="none" style="stroke:#FFFFFF;stroke-width:1;"/><rect fill="#0B58A8" height="33.0679" style="stroke:#FFFFFF;stroke-width:1;" width="136.2615" x="121.6263" y="47"/><rect fill="#0B58A8" height="33.0679" style="stroke:#FFFFFF;stroke-width:1;" width="136.2615" x="117.6263" y="51"/><text fill="#FFFFFF" font-family="Verdana" font-size="14" lengthAdjust="spacing" textLength="122.2615" x="124.6263" y="72.9659">Web Socket Server</text><rect fill="#0B58A8" height="33.0679" style="stroke:#FFFFFF;stroke-width:1;" width="136.2615" x="121.6263" y="837.6003"/><rect fill="#0B58A8" height="33.0679" style="stroke:#FFFFFF;stroke-width:1;" width="136.2615" x="117.6263" y="841.6003"/><text fill="#FFFFFF" font-family="Verdana" font-size="14" lengthAdjust="spacing" textLength="122.2615" x="124.6263" y="863.5662">Web Socket Server</text><text fill="#FFFFFF" font-family="Verdana" font-size="14" lengthAdjust="spacing" textLength="42.2658" x="296.8892" y="80.9659">User 2</text><ellipse cx="321.0221" cy="14" fill="#0B58A8" rx="8" ry="8" style="stroke:#FFFFFF;stroke-width:1;"/><path d="M321.0221,22 L321.0221,49 M308.0221,30 L334.0221,30 M321.0221,49 L308.0221,64 M321.0221,49 L334.0221,64 " fill="none" style="stroke:#FFFFFF;stroke-width:1;"/><text fill="#FFFFFF" font-family="Verdana" font-size="14" lengthAdjust="spacing" textLength="42.2658" x="296.8892" y="852.5662">User 2</text><ellipse cx="321.0221" cy="865.6682" fill="#0B58A8" rx="8" ry="8" style="stroke:#FFFFFF;stroke-width:1;"/><path d="M321.0221,873.6682 L321.0221,900.6682 M308.0221,881.6682 L334.0221,881.6682 M321.0221,900.6682 L308.0221,915.6682 M321.0221,900.6682 L334.0221,915.6682 " fill="none" style="stroke:#FFFFFF;stroke-width:1;"/><path d="M25,102.0679 L175.6121,102.0679 L175.6121,111.7739 L165.6121,121.7739 L25,121.7739 L25,102.0679 " fill="#FFFFFF" style="stroke:#FFFFFF;stroke-width:1;"/><rect fill="none" height="146.5301" style="stroke:#FFFFFF;stroke-width:1;" width="330.155" x="25" y="102.0679"/><text fill="#0B58A8" font-family="Verdana" font-size="13" font-weight="bold" lengthAdjust="spacing" textLength="105.6121" x="40" y="116.9649">User connection</text><polygon fill="#FFFFFF" points="175.757,141.4799,185.757,145.4799,175.757,145.4799" style="stroke:#FFFFFF;stroke-width:1;"/><line style="stroke:#FFFFFF;stroke-width:1;" x1="59.1329" x2="186.757" y1="145.4799" y2="145.4799"/><text fill="#FFFFFF" font-family="Verdana" font-size="13" lengthAdjust="spacing" textLength="104.6241" x="66.1329" y="139.6709">Login handshake</text><polygon fill="#FFFFFF" points="70.1329,177.186,60.1329,177.186,70.1329,181.186" style="stroke:#FFFFFF;stroke-width:1;"/><line style="stroke:#FFFFFF;stroke-width:1;" x1="59.1329" x2="186.757" y1="177.186" y2="177.186"/><text fill="#FFFFFF" font-family="Verdana" font-size="13" lengthAdjust="spacing" textLength="80.7041" x="76.1329" y="171.377">Confirmation</text><polygon fill="#FFFFFF" points="198.757,204.892,188.757,208.892,198.757,208.892" style="stroke:#FFFFFF;stroke-width:1;"/><line style="stroke:#FFFFFF;stroke-width:1;" x1="187.757" x2="320.0221" y1="208.892" y2="208.892"/><text fill="#FFFFFF" font-family="Verdana" font-size="13" lengthAdjust="spacing" textLength="104.6241" x="204.757" y="203.083">Login handshake</text><polygon fill="#FFFFFF" points="309.0221,240.598,319.0221,240.598,309.0221,244.598" style="stroke:#FFFFFF;stroke-width:1;"/><line style="stroke:#FFFFFF;stroke-width:1;" x1="187.757" x2="320.0221" y1="240.598" y2="240.598"/><text fill="#FFFFFF" font-family="Verdana" font-size="13" lengthAdjust="spacing" textLength="80.7041" x="194.757" y="234.789">Confirmation</text><path d="M25,262.598 L210.5951,262.598 L210.5951,272.304 L200.5951,282.304 L25,282.304 L25,262.598 " fill="#FFFFFF" style="stroke:#FFFFFF;stroke-width:1;"/><rect fill="none" height="83.118" style="stroke:#FFFFFF;stroke-width:1;" width="330.155" x="25" y="262.598"/><text fill="#0B58A8" font-family="Verdana" font-size="13" font-weight="bold" lengthAdjust="spacing" textLength="140.5951" x="40" y="277.495">Message User to User</text><polygon fill="#FFFFFF" points="175.757,302.01,185.757,306.01,175.757,310.01,179.757,306.01" style="stroke:#FFFFFF;stroke-width:1;"/><line style="stroke:#FFFFFF;stroke-width:1;" x1="59.1329" x2="181.757" y1="306.01" y2="306.01"/><text fill="#FFFFFF" font-family="Verdana" font-size="13" lengthAdjust="spacing" textLength="88.4391" x="66.1329" y="300.201">Send message</text><polygon fill="#FFFFFF" points="309.0221,333.716,319.0221,337.716,309.0221,341.716,313.0221,337.716" style="stroke:#FFFFFF;stroke-width:1;"/><line style="stroke:#FFFFFF;stroke-width:1;" x1="187.757" x2="315.0221" y1="337.716" y2="337.716"/><text fill="#FFFFFF" font-family="Verdana" font-size="13" lengthAdjust="spacing" textLength="109.2651" x="194.757" y="331.907">Transfer message</text><path d="M15,359.716 L188.6091,359.716 L188.6091,369.4221 L178.6091,379.4221 L15,379.4221 L15,359.716 " fill="#FFFFFF" style="stroke:#FFFFFF;stroke-width:1;"/><rect fill="none" height="461.8842" style="stroke:#FFFFFF;stroke-width:1;" width="444.2872" x="15" y="359.716"/><text fill="#0B58A8" font-family="Verdana" font-size="13" font-weight="bold" lengthAdjust="spacing" textLength="128.6091" x="30" y="374.6131">WebRTC connection</text><polygon fill="#FFFFFF" points="175.757,399.1281,185.757,403.1281,175.757,403.1281" style="stroke:#FFFFFF;stroke-width:1;"/><line style="stroke:#FFFFFF;stroke-width:1;" x1="59.1329" x2="186.757" y1="403.1281" y2="403.1281"/><text fill="#FFFFFF" font-family="Verdana" font-size="13" lengthAdjust="spacing" textLength="89.9861" x="66.1329" y="397.3191">RTC Peer Offer</text><polygon fill="#FFFFFF" points="309.0221,430.8341,319.0221,434.8341,309.0221,434.8341" style="stroke:#FFFFFF;stroke-width:1;"/><line style="stroke:#FFFFFF;stroke-width:1;" x1="187.757" x2="320.0221" y1="434.8341" y2="434.8341"/><text fill="#FFFFFF" font-family="Verdana" font-size="13" lengthAdjust="spacing" textLength="89.9861" x="194.757" y="429.0251">RTC Peer Offer</text><path d="M25,449.8341 L98.34,449.8341 L98.34,459.5401 L88.34,469.5401 L25,469.5401 L25,449.8341 " fill="#FFFFFF" style="stroke:#FFFFFF;stroke-width:1;"/><rect fill="none" height="127.8241" style="stroke:#FFFFFF;stroke-width:1;" width="424.2872" x="25" y="449.8341"/><text fill="#0B58A8" font-family="Verdana" font-size="13" font-weight="bold" lengthAdjust="spacing" textLength="28.34" x="40" y="464.7311">loop</text><text fill="#FFFFFF" font-family="Verdana" font-size="11" font-weight="bold" lengthAdjust="spacing" textLength="146.035" x="113.34" y="463.593">[Generation of candidates]</text><polygon fill="#FFFFFF" points="175.757,489.2461,185.757,493.2461,175.757,493.2461" style="stroke:#FFFFFF;stroke-width:1;"/><line style="stroke:#FFFFFF;stroke-width:1;" x1="59.1329" x2="186.757" y1="493.2461" y2="493.2461"/><text fill="#FFFFFF" font-family="Verdana" font-size="13" lengthAdjust="spacing" textLength="83.5641" x="66.1329" y="487.4371">Ice Candidate</text><polygon fill="#FFFFFF" points="309.0221,520.9521,319.0221,524.9521,309.0221,524.9521" style="stroke:#FFFFFF;stroke-width:1;"/><line style="stroke:#FFFFFF;stroke-width:1;" x1="187.757" x2="320.0221" y1="524.9521" y2="524.9521"/><text fill="#FFFFFF" font-family="Verdana" font-size="13" lengthAdjust="spacing" textLength="83.5641" x="194.757" y="519.1431">Ice Candidate</text><line style="stroke:#FFFFFF;stroke-width:1;stroke-dasharray:2.0,2.0;" x1="321.0221" x2="363.0221" y1="556.6582" y2="556.6582"/><line style="stroke:#FFFFFF;stroke-width:1;stroke-dasharray:2.0,2.0;" x1="363.0221" x2="363.0221" y1="556.6582" y2="569.6582"/><line style="stroke:#FFFFFF;stroke-width:1;stroke-dasharray:2.0,2.0;" x1="322.0221" x2="363.0221" y1="569.6582" y2="569.6582"/><polygon fill="#FFFFFF" points="332.0221,565.6582,322.0221,569.6582,332.0221,573.6582,328.0221,569.6582" style="stroke:#FFFFFF;stroke-width:1;"/><text fill="#FFFFFF" font-family="Verdana" font-size="13" lengthAdjust="spacing" textLength="109.2651" x="328.0221" y="550.8492">Adding Candidate</text><polygon fill="#FFFFFF" points="198.757,608.3642,188.757,608.3642,198.757,612.3642" style="stroke:#FFFFFF;stroke-width:1;"/><line style="stroke:#FFFFFF;stroke-width:1;" x1="187.757" x2="320.0221" y1="608.3642" y2="608.3642"/><text fill="#FFFFFF" font-family="Verdana" font-size="13" lengthAdjust="spacing" textLength="103.6751" x="204.757" y="602.5552">RTC Peer Answer</text><polygon fill="#FFFFFF" points="70.1329,640.0702,60.1329,640.0702,70.1329,644.0702" style="stroke:#FFFFFF;stroke-width:1;"/><line style="stroke:#FFFFFF;stroke-width:1;" x1="59.1329" x2="186.757" y1="640.0702" y2="640.0702"/><text fill="#FFFFFF" font-family="Verdana" font-size="13" lengthAdjust="spacing" textLength="103.6751" x="76.1329" y="634.2612">RTC Peer Answer</text><ellipse cx="320.5221" cy="671.0262" fill="#0B58A8" rx="4" ry="4" style="stroke:#FF0000;stroke-width:1.5;"/><polygon fill="#FF0000" points="303.5221,667.7762,313.5221,671.7762,303.5221,675.7762,307.5221,671.7762" style="stroke:#FF0000;stroke-width:1;"/><line style="stroke:#FF0000;stroke-width:1;" x1="59.1329" x2="309.5221" y1="671.7762" y2="671.7762"/><text fill="#FFFFFF" font-family="Verdana" font-size="13" lengthAdjust="spacing" textLength="168.0771" x="66.1329" y="665.9672">Sending MediaStreamTrack</text><path d="M25,686.7762 L98.34,686.7762 L98.34,696.4822 L88.34,706.4822 L25,706.4822 L25,686.7762 " fill="#FFFFFF" style="stroke:#FFFFFF;stroke-width:1;"/><rect fill="none" height="127.8241" style="stroke:#FFFFFF;stroke-width:1;" width="424.2872" x="25" y="686.7762"/><text fill="#0B58A8" font-family="Verdana" font-size="13" font-weight="bold" lengthAdjust="spacing" textLength="28.34" x="40" y="701.6732">loop</text><text fill="#FFFFFF" font-family="Verdana" font-size="11" font-weight="bold" lengthAdjust="spacing" textLength="146.035" x="113.34" y="700.5351">[Generation of candidates]</text><polygon fill="#FFFFFF" points="198.757,730.1882,188.757,730.1882,198.757,734.1882" style="stroke:#FFFFFF;stroke-width:1;"/><line style="stroke:#FFFFFF;stroke-width:1;" x1="187.757" x2="320.0221" y1="730.1882" y2="730.1882"/><text fill="#FFFFFF" font-family="Verdana" font-size="13" lengthAdjust="spacing" textLength="83.5641" x="204.757" y="724.3792">Ice Candidate</text><polygon fill="#FFFFFF" points="70.1329,761.8943,60.1329,761.8943,70.1329,765.8943" style="stroke:#FFFFFF;stroke-width:1;"/><line style="stroke:#FFFFFF;stroke-width:1;" x1="59.1329" x2="186.757" y1="761.8943" y2="761.8943"/><text fill="#FFFFFF" font-family="Verdana" font-size="13" lengthAdjust="spacing" textLength="83.5641" x="76.1329" y="756.0853">Ice Candidate</text><line style="stroke:#FFFFFF;stroke-width:1;stroke-dasharray:2.0,2.0;" x1="321.0221" x2="363.0221" y1="793.6003" y2="793.6003"/><line style="stroke:#FFFFFF;stroke-width:1;stroke-dasharray:2.0,2.0;" x1="363.0221" x2="363.0221" y1="793.6003" y2="806.6003"/><line style="stroke:#FFFFFF;stroke-width:1;stroke-dasharray:2.0,2.0;" x1="322.0221" x2="363.0221" y1="806.6003" y2="806.6003"/><polygon fill="#FFFFFF" points="332.0221,802.6003,322.0221,806.6003,332.0221,810.6003,328.0221,806.6003" style="stroke:#FFFFFF;stroke-width:1;"/><text fill="#FFFFFF" font-family="Verdana" font-size="13" lengthAdjust="spacing" textLength="109.2651" x="328.0221" y="787.7913">Adding Candidate</text><!--SRC=[bP3DJiCm48JFzLCivLnLpR67IbKF28aAX1lrG3aOUvDORRoLRU3ryKz2sm023f6bpCwtCtlb6smHHAjhmOJqP65SEhGm6uDmKCwOfCC1fTTa78ot-0ASv1uzSBHlQDFKbbzOYsmjM6tfzGZfdoHZCeMDoXbCTi4qXpkgjO566EKQiKSssdAOJCFMEQp8LDgsehCKlrcAWGMDwlQlqJbHOyxXARqvn28HUHY5DWzbt2BXDbOOLmLFhvsGuGoFczKFfQBoWC5tNrLnKoJk4d6e78YES8C6RSeCL84CnRGI7XqRdJ5l9SAgbu9oOWwLUAckm58fRUfpDJP84zFBf4lZtlke-VnVf9ZbwTgYUbvGeiUpHVmQbHRSMnHjk9ZS_w7MPu3lQkNz_wuLlWy0]--></g></svg>